<svg width="192" height="236" viewBox="0 0 192 236" fill="none" xmlns="http://www.w3.org/2000/svg">
<g filter="url(#filter0_d_6383_85497)">
<path d="M4 4C4 1.79086 5.79086 0 8 0H172C180.837 0 188 7.16344 188 16V212C188 220.837 180.837 228 172 228H20C11.1634 228 4 220.837 4 212V4Z" fill="url(#paint0_linear_6383_85497)" fill-opacity="0.1" shape-rendering="crispEdges"/>
<path d="M4.5 4C4.5 2.067 6.067 0.5 8 0.5H172C180.56 0.5 187.5 7.43959 187.5 16V212C187.5 220.56 180.56 227.5 172 227.5H20C11.4396 227.5 4.5 220.56 4.5 212V4Z" stroke="#ECE6F6" stroke-opacity="0.8" shape-rendering="crispEdges"/>
</g>
<path d="M4 4C4 1.79086 5.79086 0 8 0H42V26C42 32.6274 36.6274 38 30 38H4V4Z" fill="url(#paint1_linear_6383_85497)"/>
<path d="M25.1944 14.5796H13.8389C13.0549 14.5796 12.4194 15.2304 12.4194 16.0331V23.3009C12.4194 24.1037 13.0549 24.7545 13.8389 24.7545H25.1944C25.9783 24.7545 26.6138 24.1037 26.6138 23.3009V16.0331C26.6138 15.2304 25.9783 14.5796 25.1944 14.5796Z" stroke="#FFFAFE" stroke-width="1.3" stroke-linecap="round" stroke-linejoin="round"/>
<path d="M22.3555 24.7545V13.126C22.3555 12.7405 22.206 12.3708 21.9398 12.0982C21.6736 11.8256 21.3125 11.6725 20.9361 11.6725H18.0972C17.7207 11.6725 17.3597 11.8256 17.0935 12.0982C16.8273 12.3708 16.6777 12.7405 16.6777 13.126V24.7545" stroke="#FFFAFE" stroke-width="1.3" stroke-linecap="round" stroke-linejoin="round"/>
<ellipse cx="29.6654" cy="23.3333" rx="5.33332" ry="5.33333" fill="#70CC48"/>
<path d="M32.3347 21.333L28.668 24.9997L27.0013 23.333" stroke="#FFFAFE" stroke-width="1.3" stroke-linecap="round" stroke-linejoin="round"/>
<defs>
<filter id="filter0_d_6383_85497" x="0" y="0" width="192" height="236" filterUnits="userSpaceOnUse" color-interpolation-filters="sRGB">
<feFlood flood-opacity="0" result="BackgroundImageFix"/>
<feColorMatrix in="SourceAlpha" type="matrix" values="0 0 0 0 0 0 0 0 0 0 0 0 0 0 0 0 0 0 127 0" result="hardAlpha"/>
<feOffset dy="4"/>
<feGaussianBlur stdDeviation="2"/>
<feComposite in2="hardAlpha" operator="out"/>
<feColorMatrix type="matrix" values="0 0 0 0 0.733333 0 0 0 0 0.266667 0 0 0 0 0.631373 0 0 0 0.15 0"/>
<feBlend mode="normal" in2="BackgroundImageFix" result="effect1_dropShadow_6383_85497"/>
<feBlend mode="normal" in="SourceGraphic" in2="effect1_dropShadow_6383_85497" result="shape"/>
</filter>
<linearGradient id="paint0_linear_6383_85497" x1="8.8421" y1="-1.71446e-07" x2="181.376" y2="218.84" gradientUnits="userSpaceOnUse">
<stop stop-color="#DF51A6"/>
<stop offset="1" stop-color="white"/>
</linearGradient>
<linearGradient id="paint1_linear_6383_85497" x1="4" y1="2.96875" x2="35.4688" y2="38" gradientUnits="userSpaceOnUse">
<stop stop-color="#ED69C0"/>
<stop offset="1" stop-color="#BE71F4"/>
</linearGradient>
</defs>
</svg>
