<svg width="360" height="564" viewBox="0 0 360 564" fill="none" xmlns="http://www.w3.org/2000/svg">
<path d="M0.00195312 0H360.002V453.504C360.002 457.661 358.707 461.714 356.297 465.101L328.677 503.909C304.764 537.51 259.225 547.425 223.506 526.808L144.592 481.258C115.673 464.566 79.4295 467.59 53.6772 488.843L1.63847 531.791C0.986289 532.329 0.00195312 531.866 0.00195312 531.02V0Z" fill="url(#paint0_linear_6387_39388)"/>
<path d="M360 52.2662C360 70.2275 346.281 85.2141 328.39 86.7974C312.303 88.221 297.218 95.2157 285.738 106.574L238.26 153.55C221.386 170.245 194.902 172.262 175.694 158.313C150.036 139.681 113.692 150.3 102.103 179.817L94.9067 198.144C93.6377 201.376 92.1065 204.499 90.3286 207.481L74.3579 234.271C53.5534 269.168 0 254.417 0 213.788V166.5L0 66.5C0 29.7731 29.7731 0 66.5 0L178.5 0H336C349.255 0 360 10.7452 360 24V30V52.2662Z" fill="url(#paint1_linear_6387_39388)" fill-opacity="0.3"/>
<path d="M0 370.163C0 348.686 26.8884 339.007 40.5769 355.556C55.5793 373.693 81.8808 377.518 101.428 364.407L229.5 278.5L236.883 273.776C290.132 239.705 360 277.946 360 341.162V387.5V426.637C360 457.758 331.028 480.774 300.714 473.737C285.238 470.145 268.986 474.383 257.236 485.076L216.511 522.138C194.919 541.788 164.337 548.116 136.72 538.647L50.9343 509.235C44.9408 507.18 38.3512 507.821 32.8664 510.993L5.19399 526.996C2.88651 528.331 0 526.666 0 524L0 370.163Z" fill="url(#paint2_linear_6387_39388)" fill-opacity="0.3"/>
<defs>
<linearGradient id="paint0_linear_6387_39388" x1="2.00181" y1="-12.5854" x2="474.211" y2="327.085" gradientUnits="userSpaceOnUse">
<stop stop-color="#521B93"/>
<stop offset="0.963542" stop-color="#765BC0" stop-opacity="0.8"/>
</linearGradient>
<linearGradient id="paint1_linear_6387_39388" x1="5.50188" y1="99.9999" x2="337.502" y2="-69.5002" gradientUnits="userSpaceOnUse">
<stop stop-color="#662295"/>
<stop offset="1" stop-color="#2694FC"/>
</linearGradient>
<linearGradient id="paint2_linear_6387_39388" x1="285" y1="270.5" x2="22.4982" y2="623.5" gradientUnits="userSpaceOnUse">
<stop stop-color="#662295"/>
<stop offset="1" stop-color="#2694FC"/>
</linearGradient>
</defs>
</svg>
