<svg width="24" height="24" viewBox="0 0 24 24" fill="none" xmlns="http://www.w3.org/2000/svg">
<circle cx="12" cy="12" r="12" fill="#ECE6F6"/>
<path d="M16.667 9.0835H7.33366C6.68933 9.0835 6.16699 9.60583 6.16699 10.2502V16.0835C6.16699 16.7278 6.68933 17.2502 7.33366 17.2502H16.667C17.3113 17.2502 17.8337 16.7278 17.8337 16.0835V10.2502C17.8337 9.60583 17.3113 9.0835 16.667 9.0835Z" stroke="#521B93" stroke-linecap="round" stroke-linejoin="round"/>
<path d="M14.3337 17.25V7.91667C14.3337 7.60725 14.2107 7.3105 13.9919 7.09171C13.7732 6.87292 13.4764 6.75 13.167 6.75H10.8337C10.5242 6.75 10.2275 6.87292 10.0087 7.09171C9.78991 7.3105 9.66699 7.60725 9.66699 7.91667V17.25" stroke="#521B93" stroke-linecap="round" stroke-linejoin="round"/>
</svg>
