<svg width="14" height="14" viewBox="0 0 14 14" fill="none" xmlns="http://www.w3.org/2000/svg">
<path d="M12.833 8.75H11.6663V7C11.6663 6.84529 11.6049 6.69692 11.4955 6.58752C11.3861 6.47812 11.2377 6.41667 11.083 6.41667H7.58301V5.25H8.74967C8.90438 5.25 9.05276 5.18854 9.16215 5.07914C9.27155 4.96975 9.33301 4.82138 9.33301 4.66667V1.16667C9.33301 1.01196 9.27155 0.863583 9.16215 0.754186C9.05276 0.64479 8.90438 0.583332 8.74967 0.583332H5.24967C5.09496 0.583332 4.94659 0.64479 4.8372 0.754186C4.7278 0.863583 4.66634 1.01196 4.66634 1.16667V4.66667C4.66634 4.82138 4.7278 4.96975 4.8372 5.07914C4.94659 5.18854 5.09496 5.25 5.24967 5.25H6.41634V6.41667H2.91634C2.76163 6.41667 2.61326 6.47812 2.50386 6.58752C2.39447 6.69692 2.33301 6.84529 2.33301 7V8.75H1.16634C1.01163 8.75 0.863258 8.81146 0.753862 8.92085C0.644466 9.03025 0.583008 9.17862 0.583008 9.33333V12.8333C0.583008 12.988 0.644466 13.1364 0.753862 13.2458C0.863258 13.3552 1.01163 13.4167 1.16634 13.4167H4.66634C4.82105 13.4167 4.96942 13.3552 5.07882 13.2458C5.18822 13.1364 5.24967 12.988 5.24967 12.8333V9.33333C5.24967 9.17862 5.18822 9.03025 5.07882 8.92085C4.96942 8.81146 4.82105 8.75 4.66634 8.75H3.49967V7.58333H10.4997V8.75H9.33301C9.1783 8.75 9.02993 8.81146 8.92053 8.92085C8.81113 9.03025 8.74967 9.17862 8.74967 9.33333V12.8333C8.74967 12.988 8.81113 13.1364 8.92053 13.2458C9.02993 13.3552 9.1783 13.4167 9.33301 13.4167H12.833C12.9877 13.4167 13.1361 13.3552 13.2455 13.2458C13.3549 13.1364 13.4163 12.988 13.4163 12.8333V9.33333C13.4163 9.17862 13.3549 9.03025 13.2455 8.92085C13.1361 8.81146 12.9877 8.75 12.833 8.75ZM4.08301 9.91667V12.25H1.74967V9.91667H4.08301ZM5.83301 4.08333V1.75H8.16634V4.08333H5.83301ZM12.2497 12.25H9.91634V9.91667H12.2497V12.25Z" fill="#202020"/>
</svg>
