<svg width="80" height="82" viewBox="0 0 80 82" fill="none" xmlns="http://www.w3.org/2000/svg">
<path d="M72.5068 42.527C73.0731 63.0049 57.6246 79.9988 38.0469 80.5277C18.4692 81.0567 2.10447 64.9223 1.53812 44.4444C0.971755 23.9664 16.4203 6.97256 35.998 6.44361C55.5757 5.91466 71.9404 22.049 72.5068 42.527Z" stroke="#FFFAFE" stroke-opacity="0.7"/>
<ellipse cx="62.0203" cy="16.8013" rx="16.9989" ry="16.8013" fill="url(#paint0_linear_6383_85390)"/>
<g clip-path="url(#clip0_6383_85390)">
<path d="M69.2273 14.4609C68.6991 14.3616 68.1529 14.4472 67.6804 14.7032C67.2078 14.9591 66.8378 15.37 66.6325 15.8666L65.7157 18.0587L63.0344 10.4846C62.9457 10.2292 62.7653 10.0159 62.5282 9.88612C62.2911 9.7563 62.0142 9.71922 61.7513 9.7821C61.6091 9.81417 61.4749 9.87469 61.3567 9.96001C61.2386 10.0453 61.1389 10.1537 61.0637 10.2785C60.9885 10.4034 60.9394 10.5422 60.9193 10.6865C60.8992 10.8309 60.9085 10.9778 60.9466 11.1184L62.2862 16.1186L59.3837 11.0913C59.3087 10.94 59.2036 10.8058 59.0747 10.6967C58.9459 10.5877 58.796 10.5062 58.6344 10.4574C58.4729 10.4085 58.303 10.3933 58.1353 10.4127C57.9676 10.4321 57.8057 10.4856 57.6595 10.57C57.5133 10.6544 57.386 10.7679 57.2854 10.9034C57.1848 11.0389 57.113 11.1937 57.0745 11.358C57.0361 11.5224 57.0317 11.6929 57.0617 11.859C57.0917 12.0251 57.1554 12.1833 57.2489 12.3238L60.0989 17.2601L56.2884 13.1901C56.0952 13.0018 55.8376 12.8939 55.5679 12.8881C55.2981 12.8823 55.0362 12.9792 54.8351 13.1591C54.634 13.339 54.5086 13.5885 54.4844 13.8572C54.4602 14.126 54.5389 14.3939 54.7046 14.6069C55.8862 16.0435 58.307 19.0164 58.307 19.0164L54.6674 16.7125C54.4367 16.5609 54.1553 16.5072 53.8849 16.5631C53.6146 16.619 53.3775 16.7801 53.2259 17.0108C53.0743 17.2415 53.0206 17.5229 53.0765 17.7933C53.1324 18.0636 53.2934 18.3007 53.5241 18.4523L56.1486 20.2279C56.8303 20.6865 57.3984 21.2944 57.8099 22.0054L58.6049 23.3824C58.9097 23.9116 59.3163 24.3753 59.8012 24.7466C60.2862 25.1178 60.8398 25.3894 61.4303 25.5456C62.0207 25.7017 62.6362 25.7394 63.2413 25.6564C63.8464 25.5734 64.429 25.3714 64.9556 25.0621C65.7593 24.5981 66.4601 23.9754 67.0155 23.2319C67.5709 22.4884 67.9691 21.6397 68.1861 20.7374L69.5573 15.0325C69.578 14.9733 69.5858 14.9104 69.58 14.848C69.5741 14.7856 69.5549 14.7252 69.5236 14.6709C69.4922 14.6166 69.4495 14.5697 69.3984 14.5335C69.3472 14.4973 69.2889 14.4725 69.2273 14.4609Z" fill="#FFFAFE" fill-opacity="0.8"/>
<path d="M69.2272 14.4601C68.6991 14.3608 68.1528 14.4463 67.6803 14.7023C67.2078 14.9584 66.8378 15.3692 66.6325 15.8659L65.7157 18.058L63.5507 19.3081C63.2401 19.488 62.9756 19.7376 62.7779 20.0371C62.5801 20.3366 62.4545 20.6779 62.411 21.0342L64.2305 20.1857C65.6119 19.5448 66.7033 18.41 67.29 17.0047C67.4649 16.5789 67.7623 16.2145 68.1445 15.9579C68.5266 15.7012 68.9764 15.5638 69.4368 15.5631L69.5572 15.0316C69.578 14.9725 69.5857 14.9096 69.5799 14.8472C69.5741 14.7848 69.5548 14.7243 69.5235 14.6701C69.4921 14.6158 69.4494 14.5689 69.3983 14.5327C69.3472 14.4964 69.2888 14.4717 69.2272 14.4601Z" fill="#FFFAFE"/>
<path d="M61.83 11.0181C62.0469 10.8936 62.2943 10.8322 62.5442 10.841C62.7941 10.8497 63.0366 10.9282 63.2442 11.0676L63.0345 10.4843C62.9458 10.229 62.7654 10.0156 62.5283 9.88583C62.2912 9.756 62.0143 9.71893 61.7514 9.78181C61.6092 9.81389 61.475 9.87441 61.3568 9.95973C61.2387 10.0451 61.139 10.1534 61.0638 10.2783C60.9887 10.4031 60.9395 10.5419 60.9194 10.6863C60.8993 10.8306 60.9086 10.9775 60.9468 11.1182L61.1726 11.9693C61.2035 11.7715 61.2787 11.5832 61.3925 11.4185C61.5064 11.2538 61.6559 11.117 61.83 11.0181Z" fill="#FFFAFE"/>
<path d="M58.3593 11.7679C58.5893 11.6349 58.8539 11.5739 59.1189 11.5927C59.384 11.6116 59.6373 11.7094 59.8463 11.8735L59.3913 11.0854C59.3163 10.9341 59.2112 10.7998 59.0824 10.6908C58.9535 10.5818 58.8037 10.5003 58.6421 10.4515C58.4805 10.4026 58.3106 10.3874 58.143 10.4068C57.9753 10.4262 57.8134 10.4797 57.6672 10.5641C57.521 10.6485 57.3937 10.762 57.2931 10.8975C57.1924 11.0331 57.1207 11.1878 57.0822 11.3521C57.0437 11.5165 57.0393 11.687 57.0693 11.8531C57.0993 12.0192 57.163 12.1774 57.2566 12.318L57.714 13.1104C57.674 12.8477 57.7141 12.579 57.8292 12.3394C57.9443 12.0999 58.1291 11.9007 58.3593 11.7679Z" fill="#FFFAFE"/>
<path d="M54.5549 17.2398C54.774 17.112 55.0284 17.0582 55.2805 17.0864L54.679 16.6947C54.4483 16.5431 54.1669 16.4893 53.8965 16.5452C53.6262 16.6012 53.3892 16.7622 53.2376 16.9929C53.0859 17.2236 53.0322 17.5051 53.0881 17.7755C53.144 18.0458 53.305 18.2829 53.5357 18.4345L54.0607 18.7838C53.9375 18.5109 53.9198 18.202 54.011 17.9168C54.1023 17.6316 54.2961 17.3904 54.5549 17.2398Z" fill="#FFFAFE"/>
<path d="M55.2133 15.1896C55.1612 14.9399 55.1891 14.6801 55.2929 14.4471C55.3967 14.2141 55.5712 14.0197 55.7917 13.8914C55.9668 13.7933 56.1639 13.7409 56.3646 13.739C56.5653 13.7372 56.7633 13.7859 56.9402 13.8807L56.2915 13.1871C56.1976 13.0878 56.0849 13.0079 55.96 12.9522C55.8351 12.8964 55.7005 12.8658 55.5638 12.8622C55.4271 12.8585 55.291 12.8819 55.1633 12.9309C55.0356 12.9799 54.9189 13.0536 54.8197 13.1478L54.7981 13.1603C54.6017 13.3443 54.4826 13.5961 54.465 13.8647C54.4475 14.1332 54.5327 14.3984 54.7034 14.6064C54.853 14.7856 55.0152 14.9864 55.2133 15.1896Z" fill="#FFFAFE"/>
</g>
<circle cx="64.0234" cy="70" r="7" fill="#6335A3"/>
<path d="M64.0234 64.1666C62.892 64.1688 61.7857 64.4999 60.8391 65.1196C59.8926 65.7394 59.1467 66.621 58.6923 67.6572C58.2379 68.6933 58.0946 69.8392 58.2799 70.9553C58.4652 72.0714 58.9711 73.1096 59.7359 73.9433C60.2822 74.5354 60.9451 75.008 61.6831 75.3312C62.421 75.6544 63.2178 75.8212 64.0234 75.8212C64.829 75.8212 65.6259 75.6544 66.3638 75.3312C67.1017 75.008 67.7647 74.5354 68.3109 73.9433C69.0757 73.1096 69.5816 72.0714 69.7669 70.9553C69.9522 69.8392 69.8089 68.6933 69.3545 67.6572C68.9002 66.621 68.1543 65.7394 67.2077 65.1196C66.2612 64.4999 65.1548 64.1688 64.0234 64.1666ZM64.0234 74.6666C62.815 74.6648 61.6545 74.1943 60.7859 73.3541C61.0496 72.7122 61.4982 72.1631 62.0747 71.7767C62.6511 71.3903 63.3294 71.184 64.0234 71.184C64.7174 71.184 65.3957 71.3903 65.9722 71.7767C66.5487 72.1631 66.9972 72.7122 67.2609 73.3541C66.3924 74.1943 65.2318 74.6648 64.0234 74.6666ZM62.8568 68.8333C62.8568 68.6025 62.9252 68.377 63.0534 68.1851C63.1816 67.9933 63.3638 67.8437 63.577 67.7554C63.7901 67.6671 64.0247 67.644 64.251 67.689C64.4773 67.7341 64.6852 67.8452 64.8484 68.0083C65.0115 68.1715 65.1227 68.3794 65.1677 68.6057C65.2127 68.832 65.1896 69.0666 65.1013 69.2798C65.013 69.4929 64.8634 69.6751 64.6716 69.8033C64.4797 69.9315 64.2542 70 64.0234 70C63.714 70 63.4173 69.877 63.1985 69.6583C62.9797 69.4395 62.8568 69.1427 62.8568 68.8333ZM68.0543 72.3333C67.5331 71.4418 66.7309 70.7484 65.7734 70.3616C66.0704 70.0248 66.264 69.6095 66.3308 69.1655C66.3976 68.7214 66.3349 68.2675 66.1501 67.8582C65.9654 67.449 65.6664 67.1017 65.2892 66.8581C64.912 66.6145 64.4725 66.4849 64.0234 66.4849C63.5744 66.4849 63.1349 66.6145 62.7576 66.8581C62.3804 67.1017 62.0815 67.449 61.8967 67.8582C61.712 68.2675 61.6493 68.7214 61.7161 69.1655C61.7829 69.6095 61.9764 70.0248 62.2734 70.3616C61.3159 70.7484 60.5138 71.4418 59.9926 72.3333C59.5772 71.6258 59.3578 70.8204 59.3568 70C59.3568 68.7623 59.8484 67.5753 60.7236 66.7001C61.5988 65.825 62.7857 65.3333 64.0234 65.3333C65.2611 65.3333 66.4481 65.825 67.3233 66.7001C68.1984 67.5753 68.6901 68.7623 68.6901 70C68.6891 70.8204 68.4696 71.6258 68.0543 72.3333Z" fill="white"/>
<defs>
<linearGradient id="paint0_linear_6383_85390" x1="49.5212" y1="5.43572" x2="72.1949" y2="33.8617" gradientUnits="userSpaceOnUse">
<stop stop-color="#EF69BE"/>
<stop offset="1" stop-color="#B373FF"/>
</linearGradient>
<clipPath id="clip0_6383_85390">
<rect width="23.9984" height="24" fill="white" transform="translate(50.0215 4.94141)"/>
</clipPath>
</defs>
</svg>
