<svg width="24" height="24" viewBox="0 0 24 24" fill="none" xmlns="http://www.w3.org/2000/svg">
<circle cx="12" cy="12" r="12" fill="#ECE6F6"/>
<path d="M10.0003 10.6666H10.667C10.8438 10.6666 11.0134 10.5964 11.1384 10.4714C11.2634 10.3464 11.3337 10.1768 11.3337 9.99998C11.3337 9.82317 11.2634 9.6536 11.1384 9.52858C11.0134 9.40355 10.8438 9.33331 10.667 9.33331H10.0003C9.82351 9.33331 9.65395 9.40355 9.52892 9.52858C9.4039 9.6536 9.33366 9.82317 9.33366 9.99998C9.33366 10.1768 9.4039 10.3464 9.52892 10.4714C9.65395 10.5964 9.82351 10.6666 10.0003 10.6666ZM14.0003 12H10.0003C9.82351 12 9.65395 12.0702 9.52892 12.1952C9.4039 12.3203 9.33366 12.4898 9.33366 12.6666C9.33366 12.8435 9.4039 13.013 9.52892 13.1381C9.65395 13.2631 9.82351 13.3333 10.0003 13.3333H14.0003C14.1771 13.3333 14.3467 13.2631 14.4717 13.1381C14.5968 13.013 14.667 12.8435 14.667 12.6666C14.667 12.4898 14.5968 12.3203 14.4717 12.1952C14.3467 12.0702 14.1771 12 14.0003 12ZM14.0003 14.6666H10.0003C9.82351 14.6666 9.65395 14.7369 9.52892 14.8619C9.4039 14.9869 9.33366 15.1565 9.33366 15.3333C9.33366 15.5101 9.4039 15.6797 9.52892 15.8047C9.65395 15.9297 9.82351 16 10.0003 16H14.0003C14.1771 16 14.3467 15.9297 14.4717 15.8047C14.5968 15.6797 14.667 15.5101 14.667 15.3333C14.667 15.1565 14.5968 14.9869 14.4717 14.8619C14.3467 14.7369 14.1771 14.6666 14.0003 14.6666ZM17.1403 17.5266C17.1086 17.498 17.0752 17.4713 17.0403 17.4466C17.0032 17.4214 16.9628 17.4012 16.9203 17.3866L16.8003 17.3333C16.6703 17.3079 16.5357 17.3219 16.4137 17.3733C16.3309 17.4033 16.2558 17.451 16.1936 17.5132C16.1314 17.5754 16.0836 17.6506 16.0537 17.7333C16.0142 17.8165 15.9959 17.9081 16.0003 18C15.9992 18.0992 16.0201 18.1973 16.0617 18.2874C16.1033 18.3774 16.1645 18.4571 16.2407 18.5205C16.317 18.5839 16.4065 18.6295 16.5026 18.6539C16.5987 18.6784 16.6991 18.6811 16.7964 18.6618C16.8937 18.6425 16.9854 18.6018 17.065 18.5426C17.1446 18.4834 17.2099 18.4071 17.2563 18.3195C17.3026 18.2318 17.3289 18.1349 17.333 18.0358C17.3372 17.9367 17.3192 17.8379 17.2803 17.7466C17.2466 17.6659 17.1992 17.5914 17.1403 17.5266ZM17.3337 9.95998C17.3267 9.89874 17.3133 9.8384 17.2937 9.77998V9.71998C17.2616 9.65143 17.2188 9.58842 17.167 9.53331L13.167 5.53331C13.1119 5.48146 13.0489 5.4387 12.9803 5.40665C12.9604 5.40382 12.9402 5.40382 12.9203 5.40665C12.8526 5.36781 12.7778 5.34288 12.7003 5.33331H8.66699C8.13656 5.33331 7.62785 5.54403 7.25278 5.9191C6.87771 6.29417 6.66699 6.80288 6.66699 7.33331V16.6666C6.66699 17.1971 6.87771 17.7058 7.25278 18.0809C7.62785 18.4559 8.13656 18.6666 8.66699 18.6666H14.0003C14.1771 18.6666 14.3467 18.5964 14.4717 18.4714C14.5968 18.3464 14.667 18.1768 14.667 18C14.667 17.8232 14.5968 17.6536 14.4717 17.5286C14.3467 17.4036 14.1771 17.3333 14.0003 17.3333H8.66699C8.49018 17.3333 8.32061 17.2631 8.19559 17.1381C8.07056 17.013 8.00033 16.8435 8.00033 16.6666V7.33331C8.00033 7.1565 8.07056 6.98693 8.19559 6.86191C8.32061 6.73688 8.49018 6.66665 8.66699 6.66665H12.0003V8.66665C12.0003 9.19708 12.211 9.70579 12.5861 10.0809C12.9612 10.4559 13.4699 10.6666 14.0003 10.6666H16.0003V12C16.0003 12.1768 16.0706 12.3464 16.1956 12.4714C16.3206 12.5964 16.4902 12.6666 16.667 12.6666C16.8438 12.6666 17.0134 12.5964 17.1384 12.4714C17.2634 12.3464 17.3337 12.1768 17.3337 12V9.99998C17.3337 9.99998 17.3337 9.99998 17.3337 9.95998ZM14.0003 9.33331C13.8235 9.33331 13.6539 9.26308 13.5289 9.13805C13.4039 9.01303 13.3337 8.84346 13.3337 8.66665V7.60665L15.0603 9.33331H14.0003ZM16.667 14C16.4902 14 16.3206 14.0702 16.1956 14.1952C16.0706 14.3203 16.0003 14.4898 16.0003 14.6666V16C16.0003 16.1768 16.0706 16.3464 16.1956 16.4714C16.3206 16.5964 16.4902 16.6666 16.667 16.6666C16.8438 16.6666 17.0134 16.5964 17.1384 16.4714C17.2634 16.3464 17.3337 16.1768 17.3337 16V14.6666C17.3337 14.4898 17.2634 14.3203 17.1384 14.1952C17.0134 14.0702 16.8438 14 16.667 14Z" fill="#521B93"/>
</svg>
