<svg width="12" height="12" viewBox="0 0 12 12" fill="none" xmlns="http://www.w3.org/2000/svg">
<path d="M11.1745 9.0625L9.5937 6.3325C9.91719 5.73838 10.0857 5.07231 10.0837 4.39583C10.0837 3.31287 9.65349 2.27425 8.88772 1.50848C8.12195 0.742707 7.08334 0.3125 6.00037 0.3125C4.9174 0.3125 3.87879 0.742707 3.11302 1.50848C2.34724 2.27425 1.91703 3.31287 1.91703 4.39583C1.91503 5.07231 2.08355 5.73838 2.40703 6.3325L0.826201 9.0625C0.774904 9.15135 0.747946 9.25215 0.748047 9.35475C0.748149 9.45734 0.775306 9.55809 0.826779 9.64684C0.878252 9.73559 0.95222 9.80919 1.04122 9.86022C1.13022 9.91125 1.23111 9.93791 1.3337 9.9375H3.00787L3.85953 11.3725C3.88825 11.4201 3.9236 11.4633 3.96453 11.5008C4.07267 11.6051 4.21684 11.6636 4.36703 11.6642H4.4487C4.53677 11.6521 4.62091 11.6201 4.69472 11.5706C4.76852 11.521 4.83002 11.4553 4.87453 11.3783L6.00037 9.44167L7.1262 11.3958C7.17137 11.4717 7.23316 11.5363 7.30692 11.5848C7.38069 11.6333 7.46449 11.6644 7.55203 11.6758H7.6337C7.78591 11.6767 7.93245 11.6181 8.04203 11.5125C8.08127 11.4771 8.11473 11.4357 8.1412 11.39L8.99287 9.955H10.667C10.7698 9.95541 10.8709 9.92865 10.96 9.87743C11.0491 9.82621 11.1231 9.75235 11.1745 9.66333C11.229 9.57261 11.2578 9.46876 11.2578 9.36292C11.2578 9.25707 11.229 9.15323 11.1745 9.0625ZM4.3612 9.955L3.84203 9.08583C3.79091 8.9996 3.71843 8.92799 3.63158 8.87793C3.54473 8.82786 3.44644 8.80102 3.3462 8.8H2.33703L3.1712 7.35333C3.74562 7.90685 4.4696 8.27998 5.2537 8.42667L4.3612 9.955ZM6.00037 7.3125C5.42351 7.3125 4.8596 7.14144 4.37995 6.82095C3.90031 6.50046 3.52647 6.04494 3.30572 5.51199C3.08496 4.97904 3.0272 4.3926 3.13974 3.82682C3.25228 3.26104 3.53007 2.74134 3.93797 2.33344C4.34588 1.92554 4.86558 1.64775 5.43135 1.53521C5.99713 1.42267 6.58358 1.48043 7.11653 1.70118C7.64948 1.92194 8.105 2.29578 8.42549 2.77542C8.74598 3.25506 8.91704 3.81897 8.91704 4.39583C8.91704 5.16938 8.60974 5.91125 8.06276 6.45823C7.51578 7.00521 6.77392 7.3125 6.00037 7.3125ZM8.65453 8.8C8.55429 8.80102 8.45601 8.82786 8.36915 8.87793C8.2823 8.92799 8.20982 8.9996 8.1587 9.08583L7.63953 9.955L6.75287 8.40917C7.53423 8.25948 8.25552 7.88668 8.82953 7.33583L9.6637 8.7825L8.65453 8.8Z" fill="#202020"/>
</svg>
